#!OML:ASF H:\LiuWeirdWalks\Patient Classification 1\Patient 1\Session 1\male.ASF
:FULLY-SPECIFIED
:DEGREES
583
root 1.2775 18.2638 19.393 -1.101 5.16356 -4.06025
lowerback 4.94844 -0.0947224 1.96281
upperback -1.13655 0.137384 3.50849
thorax -3.95803 0.0662986 2.51584
lowerneck -22.2317 0.279973 2.59319
upperneck 27.234 1.06505 -5.0912
head 12.8378 0.0380996 -2.22456
rclavicle -2.79541e-015 -3.18055e-015
rhumerus -42.5747 -14.0689 -66.0878
rradius 28.5487
rwrist -3.86666
rhand -15.5352 -0.817455
rfingers 7.12502
rthumb 10.6485 -30.5276
lclavicle -2.79541e-015 -3.18055e-015
lhumerus -41.8901 -0.0156806 82.4436
lradius 35.6117
lwrist 4.62691
lhand -10.9723 -1.98741
lfingers 7.12502
lthumb 15.0472 27.4458
rfemur -9.211 -3.98418 27.696
rtibia 21.939
rfoot -6.164 -14.1817
rtoes -0.434857
lfemur -9.90355 -0.0813695 -12.0527
ltibia 63.0481
lfoot 13.3976 -3.38221
ltoes -11.2847
584
root 1.27103 18.2666 19.526 -1.14357 5.03946 -4.2207
lowerback 5.00528 -0.0260821 2.10609
upperback -1.10498 0.240738 3.54039
thorax -3.96022 0.114695 2.45986
lowerneck -22.3271 0.262599 2.56041
upperneck 27.2901 1.0454 -5.06689
head 12.8789 0.0282351 -2.21519
rclavicle 6.62201e-015 -2.38542e-014
rhumerus -42.3836 -13.9347 -66.2169
rradius 28.7677
rwrist -4.10938
rhand -15.5736 -0.796404
rfingers 7.12502
rthumb 10.6115 -30.5085
lclavicle 6.62201e-015 -2.38542e-014
lhumerus -41.7699 0.0666068 82.4769
lradius 35.5303
lwrist 4.5979
lhand -10.9609 -2.03247
lfingers 7.12502
lthumb 15.0581 27.3999
rfemur -8.57759 -3.98965 27.9218
rtibia 21.6944
rfoot -6.38418 -14.2113
rtoes -0.587106
lfemur -11.0723 0.407067 -11.7432
ltibia 63.9719
lfoot 11.4568 -2.71775
ltoes -12.3391
585
root 1.26372 18.2675 19.6564 -1.17961 4.90114 -4.41565
lowerback 5.10683 0.0703888 2.28765
upperback -1.00403 0.383178 3.57924
thorax -3.91608 0.181832 2.38576
lowerneck -22.8102 0.222427 2.46011
upperneck 27.4723 0.998218 -4.98349
head 13.0492 0.00283627 -2.18295
rclavicle -2.8948e-015 3.97569e-015
rhumerus -42.0463 -13.913 -66.3556
rradius 28.991
rwrist -4.34735
rhand -15.6047 -0.810951
rfingers 7.12502
rthumb 10.5815 -30.5246
lclavicle -2.8948e-015 3.97569e-015
lhumerus -41.4535 0.108296 82.543
lradius 35.4464
lwrist 4.61173
lhand -10.9398 -2.04258
lfingers 7.12502
lthumb 15.0785 27.3883
rfemur -7.9721 -3.91738 28.1994
rtibia 21.4639
rfoot -6.5748 -14.326
rtoes -0.743444
lfemur -12.2334 0.914479 -11.4002
ltibia 64.7291
lfoot 9.67262 -2.11278
ltoes -13.2571
586
root 1.25684 18.2669 19.7858 -1.20754 4.76861 -4.60557
lowerback 5.20404 0.139263 2.44712
upperback -0.930061 0.488291 3.61317
thorax -3.89606 0.230932 2.3222
lowerneck -23.1823 0.210774 2.41487
upperneck 27.6085 0.975059 -4.91168
head 13.18 -0.0062502 -2.15819
rclavicle 2.15619e-014 2.38542e-014
rhumerus -41.7326 -13.829 -66.5308
rradius 29.208
rwrist -4.56149
rhand -15.6336 -0.806933
rfingers 7.12502
rthumb 10.5536 -30.522
lclavicle 2.15619e-014 2.38542e-014
lhumerus -41.2323 0.173239 82.5655
lradius 35.4196
lwrist 4.68142
lhand -10.9185 -2.02765
lfingers 7.12502
lthumb 15.099 27.4016
rfemur -7.39011 -3.82637 28.4759
rtibia 21.2579
rfoot -6.74086 -14.4823
rtoes -0.932254
lfemur -13.3727 1.41366 -11.0841
ltibia 65.3186
lfoot 8.01185 -1.56512
ltoes -13.9718
587
root 1.25095 18.2645 19.9143 -1.2302 4.64465 -4.78277
lowerback 5.26213 0.0331729 2.44855
upperback -0.780069 0.344376 3.65909
thorax -3.77024 0.160264 2.38036
lowerneck -23.6996 0.448028 2.7747
upperneck 27.714 1.20751 -5.0256
head 13.3444 0.112261 -2.23066
rclavicle -7.14382e-016 2.38542e-015
rhumerus -41.0568 -13.4414 -67.0632
rradius 29.3429
rwrist -4.68859
rhand -15.6571 -0.791652
rfingers 7.12502
rthumb 10.5309 -30.5078
lclavicle -7.14382e-016 2.38542e-015
lhumerus -41.0048 0.648653 82.2964
lradius 35.4606
lwrist 4.80213
lhand -10.9073 -2.01465
lfingers 7.12502
lthumb 15.1098 27.4138
rfemur -6.83547 -3.73157 28.7386
rtibia 21.0914
rfoot -6.91481 -14.673
rtoes -1.11382
lfemur -14.4821 1.88946 -10.812
ltibia 65.7425
lfoot 6.43181 -1.05708
ltoes -14.4766
